<svg width="151" height="24" viewBox="0 0 151 24" fill="none" xmlns="http://www.w3.org/2000/svg">
<path d="M6.85547 0.285156L7.51172 2.11328C6.80078 2.37109 6.31641 2.82812 6.05859 3.48438C5.80078 4.13281 5.67188 4.88281 5.67188 5.73438V8.125C5.67188 8.91406 5.49609 9.62891 5.14453 10.2695C4.80078 10.9102 4.25391 11.4219 3.50391 11.8047C2.75391 12.1797 1.77344 12.3672 0.5625 12.3672V10.5859C1.30469 10.5859 1.83594 10.3633 2.15625 9.91797C2.48438 9.47266 2.64844 8.875 2.64844 8.125V5.73438C2.64844 4.91406 2.77344 4.14844 3.02344 3.4375C3.28125 2.71875 3.71484 2.08984 4.32422 1.55078C4.94141 1.00391 5.78516 0.582031 6.85547 0.285156ZM7.51172 21.4023L6.85547 23.2422C5.78516 22.9375 4.94141 22.5117 4.32422 21.9648C3.71484 21.4258 3.28125 20.7969 3.02344 20.0781C2.77344 19.3672 2.64844 18.6016 2.64844 17.7812V15.3906C2.64844 14.8906 2.57422 14.457 2.42578 14.0898C2.28516 13.7227 2.0625 13.4414 1.75781 13.2461C1.45312 13.043 1.05469 12.9414 0.5625 12.9414V11.1484C1.77344 11.1484 2.75391 11.3398 3.50391 11.7227C4.25391 12.0977 4.80078 12.6055 5.14453 13.2461C5.49609 13.8867 5.67188 14.6016 5.67188 15.3906V17.7812C5.67188 18.3516 5.72656 18.8789 5.83594 19.3633C5.95312 19.8477 6.14062 20.2656 6.39844 20.6172C6.66406 20.9688 7.03516 21.2305 7.51172 21.4023ZM21.0469 19.2344C20.0625 19.2344 19.1797 19.0781 18.3984 18.7656C17.6172 18.4453 16.9531 18.0039 16.4062 17.4414C15.8672 16.8789 15.4531 16.2266 15.1641 15.4844C14.875 14.7344 14.7305 13.9375 14.7305 13.0938V12.625C14.7305 11.6641 14.8672 10.7852 15.1406 9.98828C15.4141 9.19141 15.8047 8.5 16.3125 7.91406C16.8281 7.32812 17.4531 6.87891 18.1875 6.56641C18.9219 6.24609 19.75 6.08594 20.6719 6.08594C21.5703 6.08594 22.3672 6.23438 23.0625 6.53125C23.7578 6.82812 24.3398 7.25 24.8086 7.79688C25.2852 8.34375 25.6445 9 25.8867 9.76562C26.1289 10.5234 26.25 11.3672 26.25 12.2969V13.7031H16.1719V11.4531H22.9336V11.1953C22.9336 10.7266 22.8477 10.3086 22.6758 9.94141C22.5117 9.56641 22.2617 9.26953 21.9258 9.05078C21.5898 8.83203 21.1602 8.72266 20.6367 8.72266C20.1914 8.72266 19.8086 8.82031 19.4883 9.01562C19.168 9.21094 18.9062 9.48438 18.7031 9.83594C18.5078 10.1875 18.3594 10.6016 18.2578 11.0781C18.1641 11.5469 18.1172 12.0625 18.1172 12.625V13.0938C18.1172 13.6016 18.1875 14.0703 18.3281 14.5C18.4766 14.9297 18.6836 15.3008 18.9492 15.6133C19.2227 15.9258 19.5508 16.168 19.9336 16.3398C20.3242 16.5117 20.7656 16.5977 21.2578 16.5977C21.8672 16.5977 22.4336 16.4805 22.957 16.2461C23.4883 16.0039 23.9453 15.6406 24.3281 15.1562L25.9688 16.9375C25.7031 17.3203 25.3398 17.6875 24.8789 18.0391C24.4258 18.3906 23.8789 18.6797 23.2383 18.9062C22.5977 19.125 21.8672 19.2344 21.0469 19.2344ZM30.8906 6.32031L32.9883 10.1758L35.1445 6.32031H38.7422L35.1562 12.5195L38.9062 19H35.2969L33.0117 14.9219L30.7266 19H27.1172L30.8672 12.5195L27.2812 6.32031H30.8906ZM43.7578 8.75781V23.875H40.3828V6.32031H43.5117L43.7578 8.75781ZM51.7852 12.5195V12.7656C51.7852 13.6875 51.6758 14.543 51.457 15.332C51.2461 16.1211 50.9336 16.8086 50.5195 17.3945C50.1055 17.9727 49.5898 18.4258 48.9727 18.7539C48.3633 19.0742 47.6602 19.2344 46.8633 19.2344C46.0898 19.2344 45.418 19.0781 44.8477 18.7656C44.2773 18.4531 43.7969 18.0156 43.4062 17.4531C43.0234 16.8828 42.7148 16.2227 42.4805 15.4727C42.2461 14.7227 42.0664 13.918 41.9414 13.0586V12.4141C42.0664 11.4922 42.2461 10.6484 42.4805 9.88281C42.7148 9.10938 43.0234 8.44141 43.4062 7.87891C43.7969 7.30859 44.2734 6.86719 44.8359 6.55469C45.4062 6.24219 46.0742 6.08594 46.8398 6.08594C47.6445 6.08594 48.3516 6.23828 48.9609 6.54297C49.5781 6.84766 50.0938 7.28516 50.5078 7.85547C50.9297 8.42578 51.2461 9.10547 51.457 9.89453C51.6758 10.6836 51.7852 11.5586 51.7852 12.5195ZM48.3984 12.7656V12.5195C48.3984 11.9805 48.3516 11.4844 48.2578 11.0312C48.1719 10.5703 48.0312 10.168 47.8359 9.82422C47.6484 9.48047 47.3984 9.21484 47.0859 9.02734C46.7812 8.83203 46.4102 8.73438 45.9727 8.73438C45.5117 8.73438 45.1172 8.80859 44.7891 8.95703C44.4688 9.10547 44.207 9.32031 44.0039 9.60156C43.8008 9.88281 43.6484 10.2188 43.5469 10.6094C43.4453 11 43.3828 11.4414 43.3594 11.9336V13.5625C43.3984 14.1406 43.5078 14.6602 43.6875 15.1211C43.8672 15.5742 44.1445 15.9336 44.5195 16.1992C44.8945 16.4648 45.3867 16.5977 45.9961 16.5977C46.4414 16.5977 46.8164 16.5 47.1211 16.3047C47.4258 16.1016 47.6719 15.8242 47.8594 15.4727C48.0547 15.1211 48.1914 14.7148 48.2695 14.2539C48.3555 13.793 48.3984 13.2969 48.3984 12.7656ZM59.7188 19.2344C58.7344 19.2344 57.8516 19.0781 57.0703 18.7656C56.2891 18.4453 55.625 18.0039 55.0781 17.4414C54.5391 16.8789 54.125 16.2266 53.8359 15.4844C53.5469 14.7344 53.4023 13.9375 53.4023 13.0938V12.625C53.4023 11.6641 53.5391 10.7852 53.8125 9.98828C54.0859 9.19141 54.4766 8.5 54.9844 7.91406C55.5 7.32812 56.125 6.87891 56.8594 6.56641C57.5938 6.24609 58.4219 6.08594 59.3438 6.08594C60.2422 6.08594 61.0391 6.23438 61.7344 6.53125C62.4297 6.82812 63.0117 7.25 63.4805 7.79688C63.957 8.34375 64.3164 9 64.5586 9.76562C64.8008 10.5234 64.9219 11.3672 64.9219 12.2969V13.7031H54.8438V11.4531H61.6055V11.1953C61.6055 10.7266 61.5195 10.3086 61.3477 9.94141C61.1836 9.56641 60.9336 9.26953 60.5977 9.05078C60.2617 8.83203 59.832 8.72266 59.3086 8.72266C58.8633 8.72266 58.4805 8.82031 58.1602 9.01562C57.8398 9.21094 57.5781 9.48438 57.375 9.83594C57.1797 10.1875 57.0312 10.6016 56.9297 11.0781C56.8359 11.5469 56.7891 12.0625 56.7891 12.625V13.0938C56.7891 13.6016 56.8594 14.0703 57 14.5C57.1484 14.9297 57.3555 15.3008 57.6211 15.6133C57.8945 15.9258 58.2227 16.168 58.6055 16.3398C58.9961 16.5117 59.4375 16.5977 59.9297 16.5977C60.5391 16.5977 61.1055 16.4805 61.6289 16.2461C62.1602 16.0039 62.6172 15.6406 63 15.1562L64.6406 16.9375C64.375 17.3203 64.0117 17.6875 63.5508 18.0391C63.0977 18.3906 62.5508 18.6797 61.9102 18.9062C61.2695 19.125 60.5391 19.2344 59.7188 19.2344ZM70.1484 9.02734V19H66.7734V6.32031H69.9375L70.1484 9.02734ZM69.6562 12.2148H68.7422C68.7422 11.2773 68.8633 10.4336 69.1055 9.68359C69.3477 8.92578 69.6875 8.28125 70.125 7.75C70.5625 7.21094 71.082 6.80078 71.6836 6.51953C72.293 6.23047 72.9727 6.08594 73.7227 6.08594C74.3164 6.08594 74.8594 6.17188 75.3516 6.34375C75.8438 6.51562 76.2656 6.78906 76.6172 7.16406C76.9766 7.53906 77.25 8.03516 77.4375 8.65234C77.6328 9.26953 77.7305 10.0234 77.7305 10.9141V19H74.332V10.9023C74.332 10.3398 74.2539 9.90234 74.0977 9.58984C73.9414 9.27734 73.7109 9.05859 73.4062 8.93359C73.1094 8.80078 72.7422 8.73438 72.3047 8.73438C71.8516 8.73438 71.457 8.82422 71.1211 9.00391C70.793 9.18359 70.5195 9.43359 70.3008 9.75391C70.0898 10.0664 69.9297 10.4336 69.8203 10.8555C69.7109 11.2773 69.6562 11.7305 69.6562 12.2148ZM87.1523 15.4961C87.1523 15.2539 87.082 15.0352 86.9414 14.8398C86.8008 14.6445 86.5391 14.4648 86.1562 14.3008C85.7812 14.1289 85.2383 13.9727 84.5273 13.832C83.8867 13.6914 83.2891 13.5156 82.7344 13.3047C82.1875 13.0859 81.7109 12.8242 81.3047 12.5195C80.9062 12.2148 80.5938 11.8555 80.3672 11.4414C80.1406 11.0195 80.0273 10.5391 80.0273 10C80.0273 9.46875 80.1406 8.96875 80.3672 8.5C80.6016 8.03125 80.9336 7.61719 81.3633 7.25781C81.8008 6.89062 82.332 6.60547 82.957 6.40234C83.5898 6.19141 84.3008 6.08594 85.0898 6.08594C86.1914 6.08594 87.1367 6.26172 87.9258 6.61328C88.7227 6.96484 89.332 7.44922 89.7539 8.06641C90.1836 8.67578 90.3984 9.37109 90.3984 10.1523H87.0234C87.0234 9.82422 86.9531 9.53125 86.8125 9.27344C86.6797 9.00781 86.4688 8.80078 86.1797 8.65234C85.8984 8.49609 85.5312 8.41797 85.0781 8.41797C84.7031 8.41797 84.3789 8.48438 84.1055 8.61719C83.832 8.74219 83.6211 8.91406 83.4727 9.13281C83.332 9.34375 83.2617 9.57812 83.2617 9.83594C83.2617 10.0312 83.3008 10.207 83.3789 10.3633C83.4648 10.5117 83.6016 10.6484 83.7891 10.7734C83.9766 10.8984 84.2188 11.0156 84.5156 11.125C84.8203 11.2266 85.1953 11.3203 85.6406 11.4062C86.5547 11.5938 87.3711 11.8398 88.0898 12.1445C88.8086 12.4414 89.3789 12.8477 89.8008 13.3633C90.2227 13.8711 90.4336 14.5391 90.4336 15.3672C90.4336 15.9297 90.3086 16.4453 90.0586 16.9141C89.8086 17.3828 89.4492 17.793 88.9805 18.1445C88.5117 18.4883 87.9492 18.7578 87.293 18.9531C86.6445 19.1406 85.9141 19.2344 85.1016 19.2344C83.9219 19.2344 82.9219 19.0234 82.1016 18.6016C81.2891 18.1797 80.6719 17.6445 80.25 16.9961C79.8359 16.3398 79.6289 15.668 79.6289 14.9805H82.8281C82.8438 15.4414 82.9609 15.8125 83.1797 16.0938C83.4062 16.375 83.6914 16.5781 84.0352 16.7031C84.3867 16.8281 84.7656 16.8906 85.1719 16.8906C85.6094 16.8906 85.9727 16.832 86.2617 16.7148C86.5508 16.5898 86.7695 16.4258 86.918 16.2227C87.0742 16.0117 87.1523 15.7695 87.1523 15.4961ZM99.4688 16.1406V10.4922C99.4688 10.0859 99.4023 9.73828 99.2695 9.44922C99.1367 9.15234 98.9297 8.92188 98.6484 8.75781C98.375 8.59375 98.0195 8.51172 97.582 8.51172C97.207 8.51172 96.8828 8.57812 96.6094 8.71094C96.3359 8.83594 96.125 9.01953 95.9766 9.26172C95.8281 9.49609 95.7539 9.77344 95.7539 10.0938H92.3789C92.3789 9.55469 92.5039 9.04297 92.7539 8.55859C93.0039 8.07422 93.3672 7.64844 93.8438 7.28125C94.3203 6.90625 94.8867 6.61328 95.543 6.40234C96.207 6.19141 96.9492 6.08594 97.7695 6.08594C98.7539 6.08594 99.6289 6.25 100.395 6.57812C101.16 6.90625 101.762 7.39844 102.199 8.05469C102.645 8.71094 102.867 9.53125 102.867 10.5156V15.9414C102.867 16.6367 102.91 17.207 102.996 17.6523C103.082 18.0898 103.207 18.4727 103.371 18.8008V19H99.9609C99.7969 18.6562 99.6719 18.2266 99.5859 17.7109C99.5078 17.1875 99.4688 16.6641 99.4688 16.1406ZM99.9141 11.2773L99.9375 13.1875H98.0508C97.6055 13.1875 97.2188 13.2383 96.8906 13.3398C96.5625 13.4414 96.293 13.5859 96.082 13.7734C95.8711 13.9531 95.7148 14.1641 95.6133 14.4062C95.5195 14.6484 95.4727 14.9141 95.4727 15.2031C95.4727 15.4922 95.5391 15.7539 95.6719 15.9883C95.8047 16.2148 95.9961 16.3945 96.2461 16.5273C96.4961 16.6523 96.7891 16.7148 97.125 16.7148C97.6328 16.7148 98.0742 16.6133 98.4492 16.4102C98.8242 16.207 99.1133 15.957 99.3164 15.6602C99.5273 15.3633 99.6367 15.082 99.6445 14.8164L100.535 16.2461C100.41 16.5664 100.238 16.8984 100.02 17.2422C99.8086 17.5859 99.5391 17.9102 99.2109 18.2148C98.8828 18.5117 98.4883 18.7578 98.0273 18.9531C97.5664 19.1406 97.0195 19.2344 96.3867 19.2344C95.582 19.2344 94.8516 19.0742 94.1953 18.7539C93.5469 18.4258 93.0312 17.9766 92.6484 17.4062C92.2734 16.8281 92.0859 16.1719 92.0859 15.4375C92.0859 14.7734 92.2109 14.1836 92.4609 13.668C92.7109 13.1523 93.0781 12.7188 93.5625 12.3672C94.0547 12.0078 94.668 11.7383 95.4023 11.5586C96.1367 11.3711 96.9883 11.2773 97.957 11.2773H99.9141ZM105.469 1H108.844V16.0938L108.504 19H105.469V1ZM116.871 12.5312V12.7773C116.871 13.7227 116.77 14.5898 116.566 15.3789C116.371 16.168 116.066 16.8516 115.652 17.4297C115.238 18 114.723 18.4453 114.105 18.7656C113.496 19.0781 112.777 19.2344 111.949 19.2344C111.176 19.2344 110.504 19.0781 109.934 18.7656C109.371 18.4531 108.898 18.0117 108.516 17.4414C108.133 16.8711 107.824 16.2031 107.59 15.4375C107.355 14.6719 107.18 13.8359 107.062 12.9297V12.3906C107.18 11.4844 107.355 10.6484 107.59 9.88281C107.824 9.11719 108.133 8.44922 108.516 7.87891C108.898 7.30859 109.371 6.86719 109.934 6.55469C110.496 6.24219 111.16 6.08594 111.926 6.08594C112.762 6.08594 113.488 6.24609 114.105 6.56641C114.73 6.87891 115.246 7.32422 115.652 7.90234C116.066 8.47266 116.371 9.15234 116.566 9.94141C116.77 10.7227 116.871 11.5859 116.871 12.5312ZM113.496 12.7773V12.5312C113.496 12.0156 113.457 11.5312 113.379 11.0781C113.309 10.6172 113.184 10.2148 113.004 9.87109C112.824 9.51953 112.578 9.24219 112.266 9.03906C111.961 8.83594 111.566 8.73438 111.082 8.73438C110.621 8.73438 110.23 8.8125 109.91 8.96875C109.59 9.125 109.324 9.34375 109.113 9.625C108.91 9.90625 108.758 10.2422 108.656 10.6328C108.555 11.0156 108.492 11.4375 108.469 11.8984V13.4336C108.492 14.0508 108.594 14.5977 108.773 15.0742C108.961 15.543 109.242 15.9141 109.617 16.1875C110 16.4531 110.496 16.5859 111.105 16.5859C111.582 16.5859 111.977 16.4922 112.289 16.3047C112.602 16.1172 112.844 15.8516 113.016 15.5078C113.195 15.1641 113.32 14.7617 113.391 14.3008C113.461 13.832 113.496 13.3242 113.496 12.7773ZM122.531 1V19H119.145V1H122.531ZM131.156 19.2344C130.172 19.2344 129.289 19.0781 128.508 18.7656C127.727 18.4453 127.062 18.0039 126.516 17.4414C125.977 16.8789 125.562 16.2266 125.273 15.4844C124.984 14.7344 124.84 13.9375 124.84 13.0938V12.625C124.84 11.6641 124.977 10.7852 125.25 9.98828C125.523 9.19141 125.914 8.5 126.422 7.91406C126.938 7.32812 127.562 6.87891 128.297 6.56641C129.031 6.24609 129.859 6.08594 130.781 6.08594C131.68 6.08594 132.477 6.23438 133.172 6.53125C133.867 6.82812 134.449 7.25 134.918 7.79688C135.395 8.34375 135.754 9 135.996 9.76562C136.238 10.5234 136.359 11.3672 136.359 12.2969V13.7031H126.281V11.4531H133.043V11.1953C133.043 10.7266 132.957 10.3086 132.785 9.94141C132.621 9.56641 132.371 9.26953 132.035 9.05078C131.699 8.83203 131.27 8.72266 130.746 8.72266C130.301 8.72266 129.918 8.82031 129.598 9.01562C129.277 9.21094 129.016 9.48438 128.812 9.83594C128.617 10.1875 128.469 10.6016 128.367 11.0781C128.273 11.5469 128.227 12.0625 128.227 12.625V13.0938C128.227 13.6016 128.297 14.0703 128.438 14.5C128.586 14.9297 128.793 15.3008 129.059 15.6133C129.332 15.9258 129.66 16.168 130.043 16.3398C130.434 16.5117 130.875 16.5977 131.367 16.5977C131.977 16.5977 132.543 16.4805 133.066 16.2461C133.598 16.0039 134.055 15.6406 134.438 15.1562L136.078 16.9375C135.812 17.3203 135.449 17.6875 134.988 18.0391C134.535 18.3906 133.988 18.6797 133.348 18.9062C132.707 19.125 131.977 19.2344 131.156 19.2344ZM143.344 2.11328L144 0.285156C145.078 0.582031 145.922 1.00391 146.531 1.55078C147.141 2.08984 147.57 2.71875 147.82 3.4375C148.078 4.14844 148.207 4.91406 148.207 5.73438V8.125C148.207 8.625 148.277 9.05859 148.418 9.42578C148.559 9.79297 148.781 10.0781 149.086 10.2812C149.398 10.4844 149.801 10.5859 150.293 10.5859V12.3203C149.082 12.3203 148.102 12.1367 147.352 11.7695C146.602 11.4023 146.051 10.9023 145.699 10.2695C145.348 9.62891 145.172 8.91406 145.172 8.125V5.73438C145.172 5.16406 145.117 4.63672 145.008 4.15234C144.906 3.66797 144.723 3.25 144.457 2.89844C144.191 2.54688 143.82 2.28516 143.344 2.11328ZM144 23.2422L143.344 21.4023C143.82 21.2305 144.191 20.9688 144.457 20.6172C144.723 20.2656 144.906 19.8477 145.008 19.3633C145.117 18.8789 145.172 18.3516 145.172 17.7812V15.3906C145.172 14.6016 145.348 13.8906 145.699 13.2578C146.051 12.625 146.602 12.125 147.352 11.7578C148.102 11.3828 149.082 11.1953 150.293 11.1953V12.9414C149.559 12.9414 149.027 13.1641 148.699 13.6094C148.371 14.0547 148.207 14.6484 148.207 15.3906V17.7812C148.207 18.6016 148.078 19.3672 147.82 20.0781C147.57 20.7969 147.141 21.4258 146.531 21.9648C145.922 22.5117 145.078 22.9375 144 23.2422Z" fill="#374151"/>
</svg>
